<svg xmlns="http://www.w3.org/2000/svg" width="74" height="84" viewBox="0 0 74 84" fill="none"><g id="Layer_4" clip-path="url(#clip0_1566_4837)"><path id="Vector" d="M73.9998 42.6523L42.0034 60.8022L42.0598 60.8401L36.9998 63.6571L30.0776 59.7246L22.9297 55.6598V76.0217L36.9998 84.0001L51.371 75.8515L67.4538 66.89L67.3974 66.7577L73.9998 62.9954V42.6523Z" fill="#0E3E63"></path><path id="Vector_2" d="M56.0737 10.8332V10.8521L43.8282 3.74342L43.7717 3.83795L37 0L19.0737 10.1715L37 20.343L43.9222 24.2755L49.8851 27.6597L56.0737 31.2519V47.133L74 36.9615V21.0047L56.0737 10.8332Z" fill="#01618C"></path><path id="Vector_3" d="M17.8887 31.1955L31.9964 23.1982L14.0702 13.0078L0 21.0051V41.3481L0.0376207 41.3292V47.0011L0 47.0389V62.9957L17.9263 73.1672V52.8242V36.8674L17.8887 36.8863V31.1955Z" fill="#399BD6"></path></g><defs><clipPath id="clip0_1566_4837"><rect width="74" height="84" fill="white"></rect></clipPath></defs></svg>